<svg xmlns="http://www.w3.org/2000/svg" width="32" height="35" viewBox="0 0 32 35" shape-rendering="crispEdges"><path style="fill:#FFF;fill-opacity:.498039" d="M20 24h1v1H20z"/><path style="fill:#FFF;fill-opacity:.501961" d="M14 0h3v1H14zM27 14h1v1H27zM3 15h1v16H3zM4 31h23v1H4z"/><path style="fill:#FFF;fill-opacity:.623529" d="M20 21h1v1H20zM11 24h2v1H11zM18 24h2v1H18z"/><path style="fill:#FFF;fill-opacity:.062745" d="M13 0h1v1H13zM20 17h1v1H20zM24 17h1v1H24z"/><path style="fill:#FFF;fill-opacity:.627451" d="M3 14h1v1H3zM10 21h1v3H10z"/><path style="fill:#FFF;fill-opacity:.686275" d="M13 24h1v1H13zM17 24h1v1H17zM27 31h1v1H27z"/><path style="fill:#FFF;fill-opacity:.74902" d="M20 22h1v2H20zM3 31h1v1H3zM0 34h1v1H0z"/><path style="fill:#FFF;fill-opacity:.87451" d="M0 11h1v23H0zM24 11h1v3H24zM11 21h3v1H11zM18 21h2v1H18zM1 34h30v1H1z"/><path style="fill:#FFF;fill-opacity:.937255" d="M17 21h1v1H17z"/><path style="fill:#FFF" d="M14 1h3v21H14zM1 11h6v3H1zM25 11h6v3H25zM1 14h2v18H1zM28 14h3v18H28zM7 18h3v3H7zM21 18h3v3H21zM11 22h9v2H11zM14 24h3v4H14zM1 32h30v2H1z"/><path style="fill:#FFF;fill-opacity:.12549" d="M17 0h1v1H17zM13 1h1v20H13zM0 10h7v1H0zM24 10h7v1H24zM10 17h1v1H10zM24 18h1v3H24zM7 21h3v1H7zM21 21h3v1H21zM13 25h1v3H13z"/><path style="fill:#FFF;fill-opacity:.25098" d="M17 1h1v20H17zM4 14h3v1H4zM24 14h3v1H24zM7 17h3v1H7zM21 17h3v1H21zM20 18h1v3H20zM17 25h1v3H17z"/><path style="fill:#FFF;fill-opacity:.376471" d="M27 15h1v16H27zM10 18h1v3H10zM10 24h1v1H10z"/></svg>